<svg id="LOGO" xmlns="http://www.w3.org/2000/svg" viewBox="0 0 5952.87 1276.18"><polygon points="735.86 196.57 684.78 322.7 548.94 322.7 497.87 448.8 446.8 574.95 395.73 701.04 344.65 827.19 293.54 953.41 242.45 1079.58 378.3 1079.58 327.2 1205.76 55.51 1205.76 106.61 1079.58 157.69 953.41 208.81 827.19 259.9 701.04 310.95 574.95 362.03 448.8 413.09 322.7 464.18 196.57 735.86 196.57"/><path d="M974,953.28,1231.7,322.63h108.11l258.57,630.65H1486.66l-64-155.86h-273l-64,155.86Zm214.42-251.36H1384l-97.3-239.65Z"/><path d="M1627.21,953.28V475.79h85.59l-.09,66.66c29.73-46.84,96.49-81.08,167.66-81.08,68.47,0,120.73,34.24,146,89.19,27-50.45,88.3-89.19,164-89.19,100,0,164,71.17,164,173.88v318H2247.05V640.66c0-53.16-32.43-87.39-83.78-87.39-73,0-118.93,47.75-119.83,110.81v289.2H1937.13V640.66c0-53.16-32.43-87.39-83.79-87.39-73,0-118.92,47.75-119.82,110.81v289.2Z"/><path d="M3953.48,963.16V351.08H3719.42V313h509v38.08h-232.2V963.16Z"/><path d="M4111.38,712.38c0-162.54,104-248.91,229.42-248.91s229.41,86.37,229.41,248.91c0,168.12-104,257.28-229.41,257.28S4111.38,880.5,4111.38,712.38Zm416.1,0c0-129.1-72.44-210.83-186.68-210.83s-186.69,81.73-186.69,210.83c0,135.61,73.37,219.2,186.69,219.2S4527.48,848,4527.48,712.38Z"/><path d="M4635.3,963.16V266.56h40.87V768.11L4966,470.9h54.8L4841.49,652,5044.9,963.16h-49.23l-182-283.29L4676.17,819.19v144Z"/><path d="M5010.88,718.88c0-168.11,108.67-255.41,221.05-255.41,124.46,0,210.84,87.3,213.62,235.91v7.43H5051.74c0,144,74.31,223.84,189.48,223.84,93.81,0,144.89-57.59,162.54-121.67h39.94c-22.29,101.24-103.1,159.75-202.48,159.75C5107.47,968.73,5010.88,866.56,5010.88,718.88Zm391.95-47.36c-10.22-90.1-66.87-170-170.9-170-95.67,0-161.61,65-176.47,170Z"/><path d="M5505.4,963.16V470.9H5537l5.57,104c31.58-66.87,101.24-111.45,183.91-111.45,111.45,0,170.9,68.73,170.9,178.32V963.16h-40.87V644.58c0-88.24-45.51-143-134.68-143-101.24,0-174.61,71.51-175.54,175.54V963.16Z"/><polygon points="1058.64 70.42 1007.55 196.57 956.48 322.7 905.41 448.8 854.33 574.95 803.27 701.04 752.19 827.19 701.08 953.41 649.99 1079.58 378.3 1079.58 429.38 953.41 565.23 953.41 616.35 827.19 667.43 701.04 718.48 574.95 769.57 448.8 820.63 322.7 871.71 196.57 735.86 196.57 786.94 70.42 1058.64 70.42"/><path d="M2391.2,820.85c.9-111.72,111.72-135.15,204.51-146,72.08-8.11,125.23-10.81,126.13-48.65-.9-46.85-36.93-77.48-98.2-77.48-63.06,0-108.11,34.24-114.42,83.79H2402c9.91-100.91,100-171.18,223.43-171.18,128.84,0,200,70.27,200,172.08V849.68c0,13.51,7.21,20.72,23.43,20.72H2875v82.88h-50.45c-48.65,0-78.38-19.82-86.49-55.85a85.6,85.6,0,0,1-4.5-16.22c-27.93,51.35-80.19,82-161.27,82C2462.37,963.19,2390.3,910,2391.2,820.85ZM2721.84,774V707.33c-18,27.93-64,34.23-114.42,40.54-59.46,7.21-109,15.31-109,65.77,0,41.44,33.34,65.77,95.5,65.77C2666.89,879.41,2721.84,838,2721.84,774Z"/><path d="M2894.82,953.28V856l255.87-286.5H2902.93V475.79h366.68v97.3L3012.84,858.68h260.38v94.6Z"/><path d="M3295.74,716.34c0-157.67,103.6-255,236.94-255,135.15,0,225.24,94.6,227.94,249.56v25.23H3402.05c7.21,83.78,59.46,140.54,140.54,140.54,55,0,96.41-27,112.62-74.77h103.61c-24.33,102.7-104.51,164.87-217.13,164.87C3395.74,966.8,3295.74,862.29,3295.74,716.34Zm355-55c-13.52-68.47-55.86-109.92-118-109.92-63.06,0-109.91,41.45-126.13,109.92Z"/></svg>