<?xml version="1.0" encoding="UTF-8"?>
<svg width="164px" height="28px" viewBox="0 0 164 28" version="1.1" xmlns="http://www.w3.org/2000/svg" xmlns:xlink="http://www.w3.org/1999/xlink">
    <title>画板</title>
    <g id="画板" stroke="none" stroke-width="1" fill="none" fill-rule="evenodd">
        <g id="编组" transform="translate(5.000000, -1.000000)">
            <g id="编组备份" transform="translate(0.000000, 3.000000)" fill="#1E8DE6">
                <path d="M12,0 C18.6274659,0 24,5.37261875 24,12 C24,18.6274659 18.6274659,24 12,24 C5.37261875,24 0,18.6274659 0,12 C0,5.37261875 5.37261875,0 12,0 Z M11.9890102,4.28217763 L3.39007705,12.8810262 C3.365947,12.9052197 3.35991449,12.9405575 3.37197951,12.9703232 L3.39007705,12.9976124 C3.92739031,13.5349257 4.6090451,13.839941 5.31022754,13.9126584 C5.77356994,17.1888135 8.59700995,19.7178732 12.0000085,19.7178732 C15.3818781,19.7178732 18.1911804,17.2202349 18.68046,13.9727305 C19.3844828,13.9025094 20.0700704,13.5971326 20.6099399,13.0572263 L20.6099399,13.0572263 L20.6280374,13.0299742 C20.6401024,13.0002244 20.6340699,12.9648548 20.6099399,12.9407247 L20.6099399,12.9407247 L14.278,6.609 L14.2976209,6.59070358 L11.9890102,4.28217763 Z M11.97,8.918 L16.0455263,12.9929787 C16.0287553,15.2095252 14.220436,17.0075184 12.0000085,17.0075184 C9.76920667,17.0075184 7.95437304,15.1926848 7.95437304,12.961883 L7.95437304,12.961883 L7.926,12.961 L11.97,8.918 Z M12.3000339,12.119829 C12.1133435,11.9331386 11.8078655,11.9331386 11.6212598,12.119829 L11.6212598,12.119829 L10.4611549,13.2798493 C10.2744645,13.4666243 10.2744645,13.7720176 10.4611549,13.958708 L10.4611549,13.958708 L11.6212598,15.118813 C11.8078655,15.3054187 12.1133435,15.3054187 12.3000339,15.118813 L12.3000339,15.118813 L13.4601389,13.958708 C13.6468292,13.7720176 13.6468292,13.4666243 13.4601389,13.2798493 L13.4601389,13.2798493 Z" id="形状结合"></path>
            </g>
            <text id="AmazeToken" font-family="PingFangSC-Semibold, PingFang SC" font-size="22" font-weight="500" letter-spacing="-0.8" fill="#222222">
                <tspan x="31" y="23">AmazeToken</tspan>
            </text>
        </g>
    </g>
</svg>